<svg width="15" height="3" viewBox="0 0 15 3" fill="none" xmlns="http://www.w3.org/2000/svg">
<path d="M12.5 1.49682C12.5 2.04735 12.9477 2.49364 13.5 2.49364C14.0523 2.49364 14.5 2.04735 14.5 1.49682C14.5 0.946291 14.0523 0.5 13.5 0.5C12.9477 0.5 12.5 0.946291 12.5 1.49682Z" fill="#695CCD"/>
<path d="M6.5 1.49682C6.5 2.04735 6.94772 2.49364 7.5 2.49364C8.05228 2.49364 8.5 2.04735 8.5 1.49682C8.5 0.946291 8.05228 0.5 7.5 0.5C6.94772 0.5 6.5 0.946291 6.5 1.49682Z" fill="#695CCD"/>
<path d="M0.5 1.49682C0.5 2.04735 0.947715 2.49364 1.5 2.49364C2.05228 2.49364 2.5 2.04735 2.5 1.49682C2.5 0.946291 2.05228 0.5 1.5 0.5C0.947715 0.5 0.5 0.946291 0.5 1.49682Z" fill="#695CCD"/>
<path d="M12.5 1.49682C12.5 2.04735 12.9477 2.49364 13.5 2.49364C14.0523 2.49364 14.5 2.04735 14.5 1.49682C14.5 0.946291 14.0523 0.5 13.5 0.5C12.9477 0.5 12.5 0.946291 12.5 1.49682Z" stroke="#695CCD" stroke-linecap="round" stroke-linejoin="round"/>
<path d="M6.5 1.49682C6.5 2.04735 6.94772 2.49364 7.5 2.49364C8.05228 2.49364 8.5 2.04735 8.5 1.49682C8.5 0.946291 8.05228 0.5 7.5 0.5C6.94772 0.5 6.5 0.946291 6.5 1.49682Z" stroke="#695CCD" stroke-linecap="round" stroke-linejoin="round"/>
<path d="M0.5 1.49682C0.5 2.04735 0.947715 2.49364 1.5 2.49364C2.05228 2.49364 2.5 2.04735 2.5 1.49682C2.5 0.946291 2.05228 0.5 1.5 0.5C0.947715 0.5 0.5 0.946291 0.5 1.49682Z" stroke="#695CCD" stroke-linecap="round" stroke-linejoin="round"/>
</svg>
