<svg width="30" height="30" viewBox="0 0 30 30" fill="none" xmlns="http://www.w3.org/2000/svg">
<g filter="url(#filter0_d_4077_531)">
<path d="M5.16561 8.75302C4.84683 8.45917 5.01999 7.92793 5.45116 7.87697L11.5606 7.15462C11.7364 7.13385 11.889 7.02385 11.9631 6.86367L14.54 1.2948C14.7219 0.901783 15.2824 0.901708 15.4642 1.29473L18.0411 6.86355C18.1153 7.02373 18.2669 7.13403 18.4426 7.1548L24.5525 7.87697C24.9836 7.92793 25.1563 8.45932 24.8375 8.75318L20.3211 12.9173C20.1912 13.0371 20.1334 13.2153 20.1679 13.3883L21.3665 19.4034C21.4511 19.828 20.9979 20.1569 20.619 19.9455L15.2506 16.9493C15.0962 16.8631 14.9086 16.8635 14.7542 16.9497L9.38523 19.9447C9.00636 20.1561 8.5523 19.8279 8.63691 19.4034L9.83575 13.3887C9.87023 13.2157 9.81254 13.037 9.68262 12.9173L5.16561 8.75302Z" stroke="white" stroke-width="2" stroke-linecap="round" stroke-linejoin="round"/>
</g>
<defs>
<filter id="filter0_d_4077_531" x="0" y="0" width="30.0031" height="29.0134" filterUnits="userSpaceOnUse" color-interpolation-filters="sRGB">
<feFlood flood-opacity="0" result="BackgroundImageFix"/>
<feColorMatrix in="SourceAlpha" type="matrix" values="0 0 0 0 0 0 0 0 0 0 0 0 0 0 0 0 0 0 127 0" result="hardAlpha"/>
<feOffset dy="4"/>
<feGaussianBlur stdDeviation="2"/>
<feComposite in2="hardAlpha" operator="out"/>
<feColorMatrix type="matrix" values="0 0 0 0 0 0 0 0 0 0 0 0 0 0 0 0 0 0 0.25 0"/>
<feBlend mode="normal" in2="BackgroundImageFix" result="effect1_dropShadow_4077_531"/>
<feBlend mode="normal" in="SourceGraphic" in2="effect1_dropShadow_4077_531" result="shape"/>
</filter>
</defs>
</svg>
