<svg width="193" height="72" viewBox="0 0 193 72" fill="none" xmlns="http://www.w3.org/2000/svg">
<path fill-rule="evenodd" clip-rule="evenodd" d="M68.7024 24.1344L42.4224 31.176C41.7456 31.3488 41.1984 30.9456 41.1984 30.2688V13.68C41.1984 13.0032 41.7456 12.312 42.4224 12.1248L68.7024 5.08316C69.3936 4.89596 69.9408 5.29916 69.9408 5.99036V22.5648C69.9408 23.2416 69.3936 23.9472 68.7024 24.1344Z" fill="url(#paint0_linear_4000_162)"/>
<path fill-rule="evenodd" clip-rule="evenodd" d="M17.9136 56.9376L2.8656 60.9696C2.4768 61.0704 2.16 60.84 2.16 60.4512V50.9616C2.16 50.5728 2.4768 50.1696 2.8656 50.0688L17.9136 46.0368C18.3024 45.936 18.6048 46.1664 18.6048 46.5552V56.0448C18.6048 56.4336 18.3024 56.8368 17.9136 56.9376Z" fill="url(#paint1_linear_4000_162)"/>
<path fill-rule="evenodd" clip-rule="evenodd" d="M42.5088 59.5584V59.3424C42.5088 58.3056 41.6592 57.6864 40.608 57.96L32.9904 60.0048C31.9536 60.2784 31.104 61.3584 31.104 62.3952V62.6112L29.7216 62.9856C28.6704 63.2592 27.8352 64.3392 27.8352 65.376V66.8448L45.7776 62.0352V60.5664C45.7776 59.5296 44.928 58.9104 43.8912 59.184L42.5088 59.5584Z" fill="white"/>
<path fill-rule="evenodd" clip-rule="evenodd" d="M40.3632 33.6816C39.6864 33.8544 39.1392 33.4512 39.1392 32.7744V18.6624L10.5408 26.3232C9.1872 26.6832 8.0928 28.08 8.0928 29.4336V46.6848L17.4096 44.1936C17.64 44.1264 17.8656 44.0928 18.0864 44.0928C19.4544 44.0928 20.52 45.1728 20.52 46.5551V56.0448C20.52 57.2976 19.6272 58.4496 18.4032 58.7808L8.0928 61.5456V62.6111C8.0928 63.9647 9.1872 64.7711 10.5408 64.4111L63.1008 50.328C64.4688 49.968 65.5632 48.5711 65.5632 47.2031V26.928L40.3632 33.6816ZM27.8784 40.8671C27.8784 41.1695 27.6912 41.4288 27.4032 41.5008L21.24 43.1568C20.8224 43.2576 20.4192 42.9552 20.4192 42.5231V36.4032C20.4192 36.1152 20.6064 35.856 20.8944 35.7696L27.0576 34.128C27.4752 34.0128 27.8784 34.3296 27.8784 34.7616V40.8671Z" fill="url(#paint2_linear_4000_162)"/>
<path d="M96.204 24.52V30.82C95.538 30.928 94.935 31.003 94.395 31.045C93.855 31.093 93.288 31.117 92.694 31.117C90.192 31.117 88.305 30.553 87.033 29.425C85.761 28.291 85.122 26.608 85.116 24.376C85.116 22.852 85.413 21.577 86.007 20.551C86.607 19.525 87.45 18.763 88.536 18.265C89.628 17.761 90.915 17.509 92.397 17.509C93.489 17.509 94.626 17.656 95.808 17.95V19.264C95.196 19.102 94.626 18.988 94.098 18.922C93.57 18.856 93.039 18.823 92.505 18.823C90.681 18.823 89.262 19.27 88.248 20.164C87.234 21.058 86.727 22.444 86.727 24.322C86.727 27.982 88.695 29.812 92.631 29.812C93.369 29.812 94.074 29.773 94.746 29.695V24.52H96.204ZM107.58 26.599H100.407C100.449 27.787 100.785 28.651 101.415 29.191C102.045 29.725 102.996 29.992 104.268 29.992C105.084 29.992 106.014 29.848 107.058 29.56V30.739C106.026 31.027 105.03 31.171 104.07 31.171C102.36 31.171 101.067 30.76 100.191 29.938C99.3151 29.11 98.8771 27.838 98.8771 26.122C98.8771 25.036 99.0511 24.118 99.3991 23.368C99.7531 22.612 100.26 22.042 100.92 21.658C101.586 21.274 102.384 21.082 103.314 21.082C104.688 21.082 105.741 21.517 106.473 22.387C107.211 23.257 107.58 24.517 107.58 26.167V26.599ZM103.296 22.144C102.372 22.144 101.664 22.429 101.172 22.999C100.686 23.563 100.428 24.433 100.398 25.609H106.14C106.11 24.427 105.858 23.554 105.384 22.99C104.91 22.426 104.214 22.144 103.296 22.144ZM110 21.235H111.26L111.377 22.513H111.476C111.854 22.087 112.334 21.751 112.916 21.505C113.498 21.259 114.095 21.136 114.707 21.136C115.049 21.136 115.382 21.166 115.706 21.226V22.603C115.412 22.555 115.058 22.531 114.644 22.531C114.092 22.531 113.525 22.645 112.943 22.873C112.361 23.095 111.884 23.425 111.512 23.863V31H110V21.235ZM125.246 26.599H118.073C118.115 27.787 118.451 28.651 119.081 29.191C119.711 29.725 120.662 29.992 121.934 29.992C122.75 29.992 123.68 29.848 124.724 29.56V30.739C123.692 31.027 122.696 31.171 121.736 31.171C120.026 31.171 118.733 30.76 117.857 29.938C116.981 29.11 116.543 27.838 116.543 26.122C116.543 25.036 116.717 24.118 117.065 23.368C117.419 22.612 117.926 22.042 118.586 21.658C119.252 21.274 120.05 21.082 120.98 21.082C122.354 21.082 123.407 21.517 124.139 22.387C124.877 23.257 125.246 24.517 125.246 26.167V26.599ZM120.962 22.144C120.038 22.144 119.33 22.429 118.838 22.999C118.352 23.563 118.094 24.433 118.064 25.609H123.806C123.776 24.427 123.524 23.554 123.05 22.99C122.576 22.426 121.88 22.144 120.962 22.144ZM127.666 21.235H128.926L129.034 22.351H129.133C129.607 21.943 130.15 21.631 130.762 21.415C131.374 21.193 132.013 21.082 132.679 21.082C133.825 21.082 134.719 21.391 135.361 22.009C136.009 22.627 136.333 23.593 136.333 24.907V31H134.821V24.952C134.821 24.052 134.611 23.404 134.191 23.008C133.777 22.606 133.168 22.405 132.364 22.405C131.794 22.405 131.224 22.513 130.654 22.729C130.084 22.945 129.592 23.275 129.178 23.719V31H127.666V21.235ZM143.657 31.171C142.079 31.171 140.87 30.751 140.03 29.911C139.196 29.065 138.779 27.802 138.779 26.122C138.779 24.448 139.223 23.191 140.111 22.351C140.999 21.505 142.295 21.082 143.999 21.082C144.875 21.082 145.67 21.187 146.384 21.397V22.648C145.994 22.546 145.619 22.471 145.259 22.423C144.899 22.369 144.518 22.342 144.116 22.342C142.838 22.342 141.887 22.645 141.263 23.251C140.645 23.851 140.336 24.799 140.336 26.095C140.336 27.409 140.627 28.375 141.209 28.993C141.791 29.611 142.658 29.92 143.81 29.92C144.194 29.92 144.59 29.884 144.998 29.812C145.406 29.74 145.868 29.623 146.384 29.461V30.712C145.532 31.018 144.623 31.171 143.657 31.171ZM148.531 31V21.235H150.043V31H148.531ZM149.287 19.111C148.951 19.111 148.693 19.033 148.513 18.877C148.333 18.721 148.243 18.499 148.243 18.211C148.243 17.923 148.333 17.701 148.513 17.545C148.693 17.383 148.951 17.302 149.287 17.302C149.623 17.302 149.881 17.383 150.061 17.545C150.241 17.701 150.331 17.923 150.331 18.211C150.331 18.499 150.241 18.721 150.061 18.877C149.881 19.033 149.623 19.111 149.287 19.111ZM156.501 21.082C157.449 21.082 158.226 21.196 158.832 21.424C159.444 21.652 159.903 22.033 160.209 22.567C160.521 23.101 160.677 23.821 160.677 24.727V31H159.399L159.291 29.893H159.192C158.826 30.283 158.352 30.592 157.77 30.82C157.194 31.048 156.588 31.162 155.952 31.162C155.256 31.162 154.659 31.054 154.161 30.838C153.669 30.616 153.294 30.304 153.036 29.902C152.784 29.5 152.658 29.029 152.658 28.489C152.658 27.643 152.964 26.989 153.576 26.527C154.194 26.059 155.181 25.759 156.537 25.627L159.183 25.339V24.655C159.183 24.037 159.078 23.557 158.868 23.215C158.658 22.867 158.346 22.624 157.932 22.486C157.524 22.348 156.987 22.279 156.321 22.279C155.859 22.279 155.367 22.318 154.845 22.396C154.323 22.474 153.819 22.594 153.333 22.756V21.568C153.789 21.412 154.299 21.292 154.863 21.208C155.427 21.124 155.973 21.082 156.501 21.082ZM156.294 30.046C156.834 30.046 157.353 29.947 157.851 29.749C158.349 29.545 158.793 29.245 159.183 28.849V26.32L156.627 26.599C155.757 26.701 155.133 26.893 154.755 27.175C154.383 27.457 154.197 27.856 154.197 28.372C154.197 28.906 154.371 29.32 154.719 29.614C155.067 29.902 155.592 30.046 156.294 30.046ZM167.526 31.162C166.656 31.162 165.891 30.991 165.231 30.649C164.577 30.301 164.061 29.767 163.683 29.047C163.311 28.327 163.125 27.418 163.125 26.32C163.125 24.598 163.587 23.293 164.511 22.405C165.435 21.517 166.782 21.073 168.552 21.073C169.236 21.073 169.941 21.139 170.667 21.271V16.456H172.179V31H170.901L170.802 29.875H170.703C170.325 30.283 169.863 30.601 169.317 30.829C168.771 31.051 168.174 31.162 167.526 31.162ZM167.841 29.893C168.393 29.893 168.912 29.788 169.398 29.578C169.884 29.368 170.307 29.038 170.667 28.588V22.54C170.031 22.378 169.341 22.297 168.597 22.297C167.265 22.297 166.275 22.615 165.627 23.251C164.979 23.887 164.655 24.868 164.655 26.194C164.655 28.66 165.717 29.893 167.841 29.893ZM179.486 31.171C178.526 31.171 177.695 30.988 176.993 30.622C176.291 30.256 175.745 29.695 175.355 28.939C174.971 28.183 174.779 27.241 174.779 26.113C174.779 25.003 174.971 24.073 175.355 23.323C175.739 22.573 176.282 22.012 176.984 21.64C177.686 21.268 178.52 21.082 179.486 21.082C180.968 21.082 182.12 21.502 182.942 22.342C183.77 23.176 184.184 24.433 184.184 26.113C184.184 27.223 183.989 28.156 183.599 28.912C183.215 29.668 182.669 30.235 181.961 30.613C181.259 30.985 180.434 31.171 179.486 31.171ZM179.486 29.938C181.604 29.938 182.663 28.669 182.663 26.131C182.663 24.799 182.387 23.833 181.835 23.233C181.289 22.627 180.506 22.324 179.486 22.324C178.466 22.324 177.68 22.624 177.128 23.224C176.582 23.824 176.309 24.784 176.309 26.104C176.309 28.66 177.368 29.938 179.486 29.938ZM186.781 21.235H188.041L188.158 22.513H188.257C188.635 22.087 189.115 21.751 189.697 21.505C190.279 21.259 190.876 21.136 191.488 21.136C191.83 21.136 192.163 21.166 192.487 21.226V22.603C192.193 22.555 191.839 22.531 191.425 22.531C190.873 22.531 190.306 22.645 189.724 22.873C189.142 23.095 188.665 23.425 188.293 23.863V31H186.781V21.235ZM89.409 54.162C88.539 54.162 87.774 53.991 87.114 53.649C86.46 53.301 85.944 52.767 85.566 52.047C85.194 51.327 85.008 50.418 85.008 49.32C85.008 47.598 85.47 46.293 86.394 45.405C87.318 44.517 88.665 44.073 90.435 44.073C91.119 44.073 91.824 44.139 92.55 44.271V39.456H94.062V54H92.784L92.685 52.875H92.586C92.208 53.283 91.746 53.601 91.2 53.829C90.654 54.051 90.057 54.162 89.409 54.162ZM89.724 52.893C90.276 52.893 90.795 52.788 91.281 52.578C91.767 52.368 92.19 52.038 92.55 51.588V45.54C91.914 45.378 91.224 45.297 90.48 45.297C89.148 45.297 88.158 45.615 87.51 46.251C86.862 46.887 86.538 47.868 86.538 49.194C86.538 51.66 87.6 52.893 89.724 52.893ZM105.365 49.599H98.1923C98.2343 50.787 98.5703 51.651 99.2003 52.191C99.8303 52.725 100.781 52.992 102.053 52.992C102.869 52.992 103.799 52.848 104.843 52.56V53.739C103.811 54.027 102.815 54.171 101.855 54.171C100.145 54.171 98.8523 53.76 97.9763 52.938C97.1003 52.11 96.6623 50.838 96.6623 49.122C96.6623 48.036 96.8363 47.118 97.1843 46.368C97.5383 45.612 98.0453 45.042 98.7053 44.658C99.3713 44.274 100.169 44.082 101.099 44.082C102.473 44.082 103.526 44.517 104.258 45.387C104.996 46.257 105.365 47.517 105.365 49.167V49.599ZM101.081 45.144C100.157 45.144 99.4493 45.429 98.9573 45.999C98.4713 46.563 98.2133 47.433 98.1833 48.609H103.925C103.895 47.427 103.643 46.554 103.169 45.99C102.695 45.426 101.999 45.144 101.081 45.144ZM112.957 40.923C113.641 40.791 114.289 40.695 114.901 40.635C115.519 40.569 116.17 40.536 116.854 40.536C118.768 40.536 120.208 40.905 121.174 41.643C122.146 42.375 122.632 43.515 122.632 45.063C122.632 46.569 122.14 47.709 121.156 48.483C120.178 49.251 118.663 49.635 116.611 49.635C116.005 49.635 115.3 49.602 114.496 49.536V54H112.957V40.923ZM116.62 48.447C117.688 48.447 118.552 48.324 119.212 48.078C119.872 47.832 120.352 47.463 120.652 46.971C120.958 46.473 121.111 45.84 121.111 45.072C121.111 43.92 120.769 43.074 120.085 42.534C119.401 41.994 118.357 41.724 116.953 41.724C116.071 41.724 115.252 41.793 114.496 41.931V48.312C115.18 48.402 115.888 48.447 116.62 48.447ZM125.1 44.235H126.36L126.477 45.513H126.576C126.954 45.087 127.434 44.751 128.016 44.505C128.598 44.259 129.195 44.136 129.807 44.136C130.149 44.136 130.482 44.166 130.806 44.226V45.603C130.512 45.555 130.158 45.531 129.744 45.531C129.192 45.531 128.625 45.645 128.043 45.873C127.461 46.095 126.984 46.425 126.612 46.863V54H125.1V44.235ZM136.35 54.171C135.39 54.171 134.559 53.988 133.857 53.622C133.155 53.256 132.609 52.695 132.219 51.939C131.835 51.183 131.643 50.241 131.643 49.113C131.643 48.003 131.835 47.073 132.219 46.323C132.603 45.573 133.146 45.012 133.848 44.64C134.55 44.268 135.384 44.082 136.35 44.082C137.832 44.082 138.984 44.502 139.806 45.342C140.634 46.176 141.048 47.433 141.048 49.113C141.048 50.223 140.853 51.156 140.463 51.912C140.079 52.668 139.533 53.235 138.825 53.613C138.123 53.985 137.298 54.171 136.35 54.171ZM136.35 52.938C138.468 52.938 139.527 51.669 139.527 49.131C139.527 47.799 139.251 46.833 138.699 46.233C138.153 45.627 137.37 45.324 136.35 45.324C135.33 45.324 134.544 45.624 133.992 46.224C133.446 46.824 133.173 47.784 133.173 49.104C133.173 51.66 134.232 52.938 136.35 52.938ZM141.881 57.501C142.499 56.757 142.946 55.983 143.222 55.179C143.504 54.381 143.645 53.478 143.645 52.47V44.235H145.157V52.407C145.157 53.535 144.974 54.555 144.608 55.467C144.248 56.379 143.666 57.282 142.862 58.176L141.881 57.501ZM144.374 42.03C144.038 42.03 143.78 41.952 143.6 41.796C143.42 41.64 143.33 41.418 143.33 41.13C143.33 40.842 143.42 40.62 143.6 40.464C143.78 40.302 144.038 40.221 144.374 40.221C144.71 40.221 144.968 40.302 145.148 40.464C145.328 40.62 145.418 40.842 145.418 41.13C145.418 41.418 145.328 41.64 145.148 41.796C144.968 41.952 144.71 42.03 144.374 42.03ZM156.447 49.599H149.274C149.316 50.787 149.652 51.651 150.282 52.191C150.912 52.725 151.863 52.992 153.135 52.992C153.951 52.992 154.881 52.848 155.925 52.56V53.739C154.893 54.027 153.897 54.171 152.937 54.171C151.227 54.171 149.934 53.76 149.058 52.938C148.182 52.11 147.744 50.838 147.744 49.122C147.744 48.036 147.918 47.118 148.266 46.368C148.62 45.612 149.127 45.042 149.787 44.658C150.453 44.274 151.251 44.082 152.181 44.082C153.555 44.082 154.608 44.517 155.34 45.387C156.078 46.257 156.447 47.517 156.447 49.167V49.599ZM152.163 45.144C151.239 45.144 150.531 45.429 150.039 45.999C149.553 46.563 149.295 47.433 149.265 48.609H155.007C154.977 47.427 154.725 46.554 154.251 45.99C153.777 45.426 153.081 45.144 152.163 45.144ZM163.315 52.902C163.693 52.902 164.155 52.842 164.701 52.722V53.973C164.101 54.105 163.525 54.171 162.973 54.171C161.821 54.171 160.942 53.889 160.336 53.325C159.73 52.755 159.427 51.891 159.427 50.733V45.486H157.402V44.235H159.427L159.679 40.68H160.939V44.235H164.539V45.486H160.939V50.454C160.939 51.324 161.134 51.951 161.524 52.335C161.92 52.713 162.517 52.902 163.315 52.902ZM170.469 54.171C169.509 54.171 168.678 53.988 167.976 53.622C167.274 53.256 166.728 52.695 166.338 51.939C165.954 51.183 165.762 50.241 165.762 49.113C165.762 48.003 165.954 47.073 166.338 46.323C166.722 45.573 167.265 45.012 167.967 44.64C168.669 44.268 169.503 44.082 170.469 44.082C171.951 44.082 173.103 44.502 173.925 45.342C174.753 46.176 175.167 47.433 175.167 49.113C175.167 50.223 174.972 51.156 174.582 51.912C174.198 52.668 173.652 53.235 172.944 53.613C172.242 53.985 171.417 54.171 170.469 54.171ZM170.469 52.938C172.587 52.938 173.646 51.669 173.646 49.131C173.646 47.799 173.37 46.833 172.818 46.233C172.272 45.627 171.489 45.324 170.469 45.324C169.449 45.324 168.663 45.624 168.111 46.224C167.565 46.824 167.292 47.784 167.292 49.104C167.292 51.66 168.351 52.938 170.469 52.938ZM180.554 54.171C179.354 54.171 178.292 54.03 177.368 53.748V52.596C177.914 52.752 178.445 52.866 178.961 52.938C179.477 53.004 180.014 53.037 180.572 53.037C181.544 53.037 182.246 52.899 182.678 52.623C183.11 52.341 183.326 51.93 183.326 51.39C183.326 51.102 183.275 50.862 183.173 50.67C183.071 50.478 182.897 50.319 182.651 50.193C182.405 50.061 182.066 49.956 181.634 49.878L179.978 49.608C179 49.446 178.292 49.146 177.854 48.708C177.422 48.27 177.206 47.682 177.206 46.944C177.206 46.068 177.563 45.372 178.277 44.856C178.991 44.34 180.077 44.082 181.535 44.082C182.489 44.082 183.392 44.202 184.244 44.442V45.594C183.38 45.348 182.48 45.225 181.544 45.225C180.512 45.225 179.777 45.372 179.339 45.666C178.901 45.96 178.682 46.368 178.682 46.89C178.682 47.286 178.802 47.61 179.042 47.862C179.288 48.114 179.714 48.294 180.32 48.402L181.976 48.672C182.96 48.834 183.677 49.122 184.127 49.536C184.577 49.944 184.802 50.529 184.802 51.291C184.802 52.197 184.445 52.905 183.731 53.415C183.017 53.919 181.958 54.171 180.554 54.171Z" fill="white"/>
<defs>
<linearGradient id="paint0_linear_4000_162" x1="5097.12" y1="10705.1" x2="10662.6" y2="16036.6" gradientUnits="userSpaceOnUse">
<stop stop-color="#FFC367"/>
<stop offset="1" stop-color="#FC8A00"/>
</linearGradient>
<linearGradient id="paint1_linear_4000_162" x1="-7183.63" y1="8031.29" x2="-5360.8" y2="9777.49" gradientUnits="userSpaceOnUse">
<stop stop-color="#FFC367"/>
<stop offset="1" stop-color="#FC8A00"/>
</linearGradient>
<linearGradient id="paint2_linear_4000_162" x1="-6062.48" y1="8876.93" x2="10491.9" y2="41465.2" gradientUnits="userSpaceOnUse">
<stop stop-color="#695CCD"/>
<stop offset="1" stop-color="#2C0063"/>
</linearGradient>
</defs>
</svg>
